<?xml version="1.0" encoding="utf-8"?>
<svg width="48px" height="48px" viewBox="0 0 48 48" version="1.1" xmlns:xlink="http://www.w3.org/1999/xlink" xmlns="http://www.w3.org/2000/svg">
  <defs>
    <linearGradient x1="0.149825" y1="0.149825" x2="0.915375" y2="0.915375" id="gradient_1">
      <stop offset="0%" stop-color="#2AA4F4" />
      <stop offset="100%" stop-color="#007AD9" />
    </linearGradient>
    <path d="M0 0L48 0L48 48L0 48L0 0Z" id="path_1" />
    <clipPath id="mask_1">
      <use xlink:href="#path_1" />
    </clipPath>
  </defs>
  <g id="Facebook-icon">
    <path d="M0 0L48 0L48 48L0 48L0 0Z" id="Background" fill="none" fill-rule="evenodd" stroke="none" />
    <g clip-path="url(#mask_1)">
      <path d="M24 4C12.954 4 4 12.954 4 24C4 35.046 12.954 44 24 44C35.046 44 44 35.046 44 24C44 12.954 35.046 4 24 4L24 4Z" id="Shape" fill="url(#gradient_1)" stroke="none" />
      <path d="M26.707 29.301L31.883 29.301L32.696 24.043L26.707 24.043L26.707 21.169C26.707 18.985 27.421 17.048 29.464 17.048L32.747 17.048L32.747 12.46C32.17 12.382 30.95 12.212 28.645 12.212C23.831 12.212 21.009 14.754 21.009 20.546L21.009 24.044L16.06 24.044L16.06 29.302L21.008 29.302L21.008 43.754C21.988 43.9 22.981 44 24 44C24.921 44 25.82 43.916 26.707 43.796L26.707 29.301L26.707 29.301Z" id="Shape" fill="#FFFFFF" stroke="none" />
    </g>
  </g>
</svg>