<?xml version="1.0" encoding="utf-8"?>
<svg width="48px" height="48px" viewBox="0 0 48 48" version="1.1" xmlns:xlink="http://www.w3.org/1999/xlink" xmlns="http://www.w3.org/2000/svg">
  <defs>
    <path d="M0 0L48 0L48 48L0 48L0 0Z" id="path_1" />
    <clipPath id="mask_1">
      <use xlink:href="#path_1" />
    </clipPath>
  </defs>
  <g id="Ethereum-icon">
    <path d="M0 0L48 0L48 48L0 48L0 0Z" id="Background" fill="none" fill-rule="evenodd" stroke="none" />
    <g clip-path="url(#mask_1)">
      <path d="M11 24L25 2L39 24L25 32L11 24Z" id="Shape" fill="#9FA8DA" stroke="none" />
      <path d="M25 2L39 24L25 32L25 2Z" id="Shape" fill="#7986CB" stroke="none" />
      <path d="M11 27L25 35L39 27L25 46L11 27Z" id="Shape" fill="#9FA8DA" stroke="none" />
      <path d="M25 35L39 27L25 46L25 35ZM11 24L25 18L39 24L25 32L11 24Z" id="Shape" fill="#7986CB" fill-rule="evenodd" stroke="none" />
      <path d="M25 18L39 24L25 32L25 18Z" id="Shape" fill="#5C6BC0" stroke="none" />
    </g>
  </g>
</svg>