<?xml version="1.0" encoding="utf-8"?>
<svg width="59px" height="59px" viewBox="0 0 59 59" version="1.1" xmlns:xlink="http://www.w3.org/1999/xlink" xmlns="http://www.w3.org/2000/svg">
  <defs>
    <path d="M0 0L59 0L59 59L0 59L0 0Z" id="path_1" />
    <clipPath id="mask_1">
      <use xlink:href="#path_1" />
    </clipPath>
  </defs>
  <g id="Document-icon">
    <path d="M0 0L59 0L59 59L0 59L0 0Z" id="Background" fill="none" fill-rule="evenodd" stroke="none" />
    <g clip-path="url(#mask_1)">
      <path d="M9.83333 46.7084L9.83333 12.2917C9.83333 8.21823 13.1349 4.91669 17.2083 4.91669L34.4167 4.91669L49.1667 19.6667L49.1667 46.7084C49.1667 50.7818 45.8651 54.0834 41.7917 54.0834L17.2083 54.0834C13.1349 54.0834 9.83333 50.7818 9.83333 46.7084L9.83333 46.7084Z" id="Shape" fill="#10316B" fill-opacity="0.35" stroke="none" />
      <path d="M34.4167 14.75L34.4167 4.91669L49.1667 19.6667L39.3333 19.6667C36.6169 19.6667 34.4167 17.4665 34.4167 14.75L34.4167 14.75Z" id="Shape" fill="#10316B" stroke="none" />
      <path d="M36.875 31.9584L22.125 31.9584C20.7655 31.9584 19.6667 30.857 19.6667 29.5C19.6667 28.143 20.7655 27.0417 22.125 27.0417L36.875 27.0417C38.2345 27.0417 39.3333 28.143 39.3333 29.5C39.3333 30.857 38.2345 31.9584 36.875 31.9584L36.875 31.9584Z" id="Shape" fill="#10316B" stroke="none" />
      <path d="M31.9583 41.7917L22.125 41.7917C20.7655 41.7917 19.6667 40.6903 19.6667 39.3333C19.6667 37.9763 20.7655 36.875 22.125 36.875L31.9583 36.875C33.3178 36.875 34.4167 37.9763 34.4167 39.3333C34.4167 40.6903 33.3178 41.7917 31.9583 41.7917L31.9583 41.7917Z" id="Shape" fill="#10316B" stroke="none" />
    </g>
  </g>
</svg>